HIERARCHY
ROOT Hips
{
	OFFSET 0.000000 0.000000 0.000000 
	CHANNELS 6 Xposition Yposition Zposition Yrotation Zrotation Xrotation 
	JOINT Lumbar
	{
		OFFSET 0.000000 0.000000 0.000000 
		CHANNELS 3 Zrotation Xrotation Yrotation
		JOINT Neck
		{
			OFFSET 0.000000 0.445665 0.000000 
			CHANNELS 3 Zrotation Xrotation Yrotation
			End Site
			{
				OFFSET 0.000000 0.227535 0.000000 
			}
		}
		JOINT RightShoulder
		{
			OFFSET 0.019635 0.377685 0.194865 
			CHANNELS 3 Zrotation Xrotation Yrotation
			JOINT RightElbow
			{
				OFFSET 0.000000 -0.243375 0.000000 
				CHANNELS 2 Zrotation Yrotation
				JOINT RightWrist
				{
					OFFSET 0.000000 -0.264825 0.000000 
					CHANNELS 2 Zrotation Xrotation
					End Site
					{
						OFFSET 0.006600 -0.176220 0.000990 
					}
				}
			}
		}
		JOINT LeftShoulder
		{
			OFFSET 0.019635 0.377685 -0.194865 
			CHANNELS 3 Zrotation Xrotation Yrotation
			JOINT LeftElbow
			{
				OFFSET 0.000000 -0.243375 0.000000 
				CHANNELS 2 Zrotation Yrotation
				JOINT LeftWrist
				{
					OFFSET 0.000000 -0.264825 0.000000 
					CHANNELS 2 Zrotation Xrotation
					End Site
					{
						OFFSET 0.006600 -0.176220 -0.000990 
					}
				}
			}
		}
	}
	JOINT RightHip
	{
		OFFSET 0.052140 -0.069960 0.075570 
		CHANNELS 3 Zrotation Xrotation Yrotation
		JOINT RightKnee
		{
			OFFSET 0.000000 -0.402270 0.000000 
			CHANNELS 1 Zrotation
			JOINT RightAnkle
			{
				OFFSET 0.000000 -0.404085 0.000000 
				CHANNELS 3 Zrotation Xrotation Yrotation
				End Site
				{
					OFFSET 0.204105 -0.089430 0.008415 
				}
			}
		}
	}
	JOINT LeftHip
	{
		OFFSET 0.052140 -0.069960 -0.075570 
		CHANNELS 3 Zrotation Xrotation Yrotation
		JOINT LeftKnee
		{
			OFFSET 0.000000 -0.402270 0.000000 
			CHANNELS 1 Zrotation
			JOINT LeftAnkle
			{
				OFFSET 0.000000 -0.404085 0.000000 
				CHANNELS 3 Zrotation Xrotation Yrotation
				End Site
				{
					OFFSET 0.204105 -0.089430 -0.008415 
				}
			}
		}
	}
}
MOTION
Frames: 35
Frame Time: 0.02
-0 0.95578 0 177.4176 0 -2.25802 5.84032 2.07388 0.82444 -14.59079 1.17649 0.8638 -3.90123 -65.04825 -84.66621 20.85663 74.67212 -19.17144 -2.29795 12.70338 69.99048 65.21653 17.72215 -77.35281 -24.38585 3.33769 -4.60358 6.72003 -4.33922 -8.5209 3.85511 -5.90914 -10.58652 -2.75846 1.07198 2.92425 -6.25815 5.08663 6.19504 10.33734
0.00049 0.95587 -0.00025 177.33023 0 -2.25959 5.82272 2.11576 0.88831 -14.80765 1.10496 0.88775 -3.65386 -65.01233 -84.59408 20.87986 74.3663 -19.14447 -2.39215 12.9407 70.06157 65.11294 17.73976 -77.39957 -24.39347 3.28207 -4.53325 6.73195 -4.16787 -8.58452 3.8069 -5.88802 -10.6716 -2.72671 1.08604 3.02999 -6.28017 5.0647 6.18069 10.32191
0.00099 0.95595 -0.0005 177.24317 0 -2.26133 5.80466 2.15763 0.95193 -15.02457 1.03413 0.91168 -3.40563 -64.977 -84.52128 20.90269 74.06452 -19.11747 -2.48524 13.17907 70.13148 65.00847 17.75767 -77.44584 -24.4006 3.22706 -4.46241 6.74383 -3.99713 -8.64864 3.75833 -5.8669 -10.75621 -2.69449 1.10016 3.13501 -6.3025 5.04257 6.16637 10.30688
0.0015 0.95604 -0.00074 177.15694 0 -2.26366 5.78504 2.19979 1.01478 -15.24069 0.96487 0.93561 -3.15622 -64.94285 -84.44692 20.92405 73.77737 -19.09063 -2.57457 13.41947 70.1985 64.90276 17.77518 -77.48994 -24.40613 3.17403 -4.3897 6.75567 -3.82787 -8.71484 3.70807 -5.84563 -10.83927 -2.66059 1.11464 3.23762 -6.32636 5.01956 6.15218 10.29347
0.00194 0.95611 -0.00101 177.06682 0 -2.26273 5.77426 2.24028 1.08128 -15.45725 0.88666 0.95936 -2.9187 -64.90147 -84.38306 20.95308 73.41447 -19.06362 -2.68354 13.64368 70.28219 64.80763 17.79267 -77.54466 -24.42048 3.11063 -4.32796 6.76769 -3.65159 -8.76938 3.66699 -5.82524 -10.9299 -2.63619 1.12724 3.3523 -6.34217 5.00141 6.13746 10.2717
0.00254 0.95622 -0.00121 176.98467 0 -2.26883 5.74441 2.28435 1.14028 -15.67526 0.82791 0.98357 -2.65244 -64.87609 -84.29552 20.96592 73.21094 -19.03656 -2.75106 13.90559 70.32961 64.68746 17.81164 -77.57746 -24.41593 3.06916 -4.24238 6.77935 -3.48979 -8.84894 3.6064 -5.80296 -11.00486 -2.59132 1.14379 3.44182 -6.37496 4.97284 6.1238 10.26749
0.00357 0.95647 -0.00124 176.92588 0 -2.29418 5.66224 2.33936 1.17681 -15.88183 0.81933 1.00895 -2.32828 -64.89001 -84.15053 20.93236 73.46914 -19.01193 -2.69998 14.25238 70.28218 64.51452 17.82347 -77.54495 -24.35968 3.08986 -4.09157 6.79011 -3.36963 -8.99933 3.48967 -5.77493 -11.03357 -2.48977 1.17206 3.45791 -6.45754 4.91495 6.11348 10.31457
0.00477 0.95677 -0.0012 176.87481 0 -2.3267 5.56059 2.39783 1.20597 -16.09314 0.83098 1.035 -1.97058 -64.92088 -83.97985 20.88278 73.88514 -18.98658 -2.60782 14.64148 70.19698 64.31248 17.83917 -77.49228 -24.28457 3.13253 -3.91617 6.80049 -3.26366 -9.17512 3.35366 -5.74508 -11.04707 -2.3674 1.2042 3.44938 -6.5568 4.8466 6.10415 10.37886
0.00591 0.95705 -0.00118 176.81924 0 -2.35608 5.46763 2.45417 1.23988 -16.31232 0.83578 1.06061 -1.61409 -64.94735 -83.8158 20.84153 74.21446 -18.96003 -2.53698 15.02378 70.1257 64.11365 17.86003 -77.45046 -24.21724 3.16397 -3.75171 6.81099 -3.14992 -9.33792 3.22765 -5.71634 -11.06944 -2.25458 1.23411 3.45467 -6.64663 4.78326 6.09411 10.43355
0.00698 0.95734 -0.00121 176.76784 0 -2.38494 5.37569 2.513 1.26847 -16.48827 0.83095 1.08609 -1.31772 -64.96041 -83.67376 20.79568 74.6045 -18.94053 -2.45469 15.35223 70.06864 63.95964 17.85046 -77.39689 -24.15173 3.20017 -3.58922 6.82171 -3.0417 -9.5055 3.09596 -5.68631 -11.08338 -2.14164 1.26605 3.44873 -6.74427 4.71868 6.08517 10.49591
0.00825 0.95761 -0.00111 176.70961 0 -2.41663 5.2766 2.56728 1.30563 -16.75651 0.85067 1.11283 -0.8871 -65.00477 -83.47888 20.75583 74.9086 -18.90541 -2.38682 15.80458 69.97234 63.70221 17.90671 -77.36882 -24.07985 3.2323 -3.41558 6.83188 -2.92545 -9.67082 2.97213 -5.65865 -11.11146 -2.0237 1.29462 3.46051 -6.82962 4.65441 6.07418 10.54616
0.00999 0.95783 -0.00068 176.63055 0 -2.4539 5.1655 2.60967 1.37489 -17.26836 0.93593 1.13543 -0.10286 -65.13631 -83.15132 20.7345 74.91257 -18.83476 -2.36649 16.57397 69.7821 63.19337 18.13063 -77.36909 -23.98225 3.24256 -3.22702 6.84063 -2.78254 -9.81024 2.86946 -5.63698 -11.18087 -1.89958 1.31332 3.52542 -6.87687 4.59183 6.05708 10.5608
0.01195 0.95804 -0.00012 176.54444 0 -2.49381 5.04715 2.64694 1.45184 -17.87445 1.04473 1.16044 0.81689 -65.29741 -82.76962 20.72018 74.83045 -18.74753 -2.36282 17.46893 69.55242 62.57649 18.42306 -77.40632 -23.88364 3.24913 -3.02597 6.8488 -2.6312 -9.94945 2.77639 -5.61799 -11.26552 -1.77058 1.32838 3.60914 -6.91122 4.53024 6.03792 10.56237
0.01384 0.95825 0.0004 176.46153 0 -2.53292 4.93033 2.68579 1.52082 -18.44447 1.14092 1.18947 1.68054 -65.44236 -82.40886 20.70391 74.80192 -18.66246 -2.3527 18.31663 69.33781 61.9912 18.69275 -77.45514 -23.79084 3.26061 -2.82455 6.85724 -2.48443 -10.09704 2.68232 -5.59835 -11.34387 -1.64228 1.34494 3.68574 -6.95148 4.46939 6.01981 10.56844
0.01562 0.95849 0.00086 176.37864 0 -2.57087 4.8209 2.72858 1.60821 -18.98759 1.24569 1.19774 2.52263 -65.60123 -82.06495 20.6817 74.71237 -18.59812 -2.33528 19.12617 69.13515 61.47843 18.92724 -77.37593 -23.66505 3.25845 -2.64899 6.86573 -2.33521 -10.20881 2.57319 -5.57603 -11.41813 -1.52005 1.36251 3.75636 -6.99198 4.40325 6.00122 10.58077
0.01768 0.95866 0.00147 176.29427 0 -2.6114 4.69381 2.76107 1.65946 -19.60721 1.33815 1.24878 3.44087 -65.73557 -81.67056 20.67391 74.73424 -18.4891 -2.33899 20.04224 68.89719 60.7898 19.25113 -77.58181 -23.6202 3.28446 -2.41541 6.87388 -2.1887 -10.39699 2.4982 -5.5602 -11.50584 -1.38383 1.37679 3.84306 -7.02889 4.34839 5.98316 10.57728
0.02043 0.95868 0.00244 176.20464 0 -2.66159 4.52629 2.77336 1.60641 -20.43037 1.38869 1.42653 4.53978 -65.81318 -81.17393 20.70293 75.02749 -18.24131 -2.385 21.2389 68.5831 59.63778 19.80777 -78.47953 -23.69222 3.38048 -2.03765 6.88229 -2.05367 -10.77711 2.51306 -5.55939 -11.61707 -1.21402 1.38543 3.97984 -7.0574 4.32535 5.96669 10.52844
0.02347 0.95864 0.00356 176.11426 0 -2.71376 4.33988 2.77418 1.51718 -21.32397 1.4263 1.64559 5.70932 -65.86039 -80.62357 20.74667 75.44696 -17.9538 -2.45421 22.53379 68.23173 58.3134 20.4525 -79.67456 -23.86395 3.506 -1.59971 6.89025 -1.92145 -11.23733 2.56228 -5.56533 -11.74281 -1.02961 1.39052 4.1305 -7.08297 4.31351 5.95088 10.46484
0.02641 0.95862 0.00461 176.02607 0 -2.76279 4.1582 2.7756 1.44631 -22.17575 1.47115 1.83965 6.84465 -65.91101 -80.08281 20.78445 75.84386 -17.69588 -2.52078 23.7738 67.8914 57.07086 21.05387 -80.79596 -24.06251 3.62421 -1.18082 6.89767 -1.78635 -11.67363 2.59745 -5.56977 -11.86898 -0.84957 1.39534 4.26801 -7.11084 4.29601 5.93502 10.4112
0.02924 0.95862 0.00567 175.92983 0 -2.82096 3.99349 2.79617 1.36783 -23.07391 1.51112 2.05985 7.99567 -66.01155 -79.60453 20.81889 76.08592 -17.38438 -2.55428 25.06646 67.57927 55.80982 21.66757 -81.67769 -23.96392 3.71858 -0.79618 6.908 -1.65685 -12.05829 2.62701 -5.56812 -11.96772 -0.67926 1.40741 4.43446 -7.13413 4.28095 5.91805 10.34376
0.03238 0.95857 0.00674 175.85029 0 -2.86102 3.78785 2.77437 1.29622 -23.88885 1.55784 2.23565 9.12649 -65.99429 -78.98176 20.86429 76.6879 -17.18063 -2.66227 26.26486 67.19419 54.54765 22.28077 -83.10538 -24.49856 3.86713 -0.32649 6.91242 -1.51754 -12.56818 2.67546 -5.5802 -12.12472 -0.48487 1.40433 4.54439 -7.16653 4.26346 5.90355 10.30124
0.03627 0.95838 0.00783 175.81674 0 -2.84648 3.48407 2.63724 1.25508 -24.47454 1.62662 2.27642 10.20593 -65.71084 -77.99178 20.93044 78.19486 -17.23556 -2.9671 27.23336 66.66613 53.32467 22.82187 -86.17294 -26.83257 4.1804 0.36636 6.89835 -1.34124 -13.4154 2.77538 -5.63302 -12.45583 -0.23138 1.35394 4.48898 -7.22339 4.23646 5.896 10.33556
0.04047 0.95814 0.00893 175.79997 0 -2.81453 3.13796 2.45826 1.22159 -24.97035 1.70252 2.27152 11.25837 -65.29926 -76.85418 21.0075 80.0678 -17.40746 -3.34624 28.09387 66.05624 52.10599 23.3649 -89.7445 -29.78232 4.54354 1.14173 6.87878 -1.15667 -14.38336 2.89202 -5.69863 -12.841 0.04633 1.28977 4.37735 -7.28951 4.20655 5.89083 10.39474
0.04456 0.95793 0.01002 175.77596 0 -2.79307 2.80438 2.299 1.18279 -25.49502 1.77484 2.28903 12.30761 -64.91337 -75.77333 21.08425 81.81565 -17.56024 -3.6938 28.96611 65.45254 50.88708 23.94325 -92.9465 -32.40602 4.86857 1.87775 6.86321 -0.98208 -15.28935 2.99537 -5.75538 -13.19138 0.31571 1.23589 4.29506 -7.35281 4.17815 5.88447 10.43965
0.04854 0.95771 0.01116 175.75094 0 -2.76023 2.49801 2.13572 1.15037 -26.07235 1.84803 2.30094 13.42263 -64.66722 -74.73777 21.14465 83.4067 -17.57606 -4.03438 29.99509 64.98121 49.65901 24.38579 -96.73865 -35.24499 5.2577 2.62521 6.84123 -0.78163 -16.22998 3.12232 -5.82503 -13.5889 0.57515 1.16423 4.19673 -7.41151 4.14977 5.87882 10.4964
0.05282 0.95749 0.01218 175.73118 0 -2.74764 2.12571 1.97187 1.10708 -26.5183 1.92147 2.31317 14.3959 -64.0957 -73.56904 21.23805 85.39343 -17.89525 -4.405 30.67622 64.21165 48.44804 25.09309 -99.4343 -37.75961 5.52745 3.36572 6.83135 -0.63265 -17.12374 3.20567 -5.87103 -13.89653 0.85978 1.12717 4.11893 -7.4803 4.11995 5.87197 10.53481
0.05791 0.95731 0.01288 175.7292 0 -2.78881 1.57764 1.80933 1.03083 -26.61795 1.99168 2.33663 14.96005 -62.69274 -72.10655 21.44868 88.51879 -19.10935 -4.85565 30.37299 62.66816 47.32861 26.68033 -98.82817 -39.40771 5.43209 4.0825 6.85532 -0.63035 -17.87888 3.14757 -5.84664 -13.98173 1.21708 1.182 4.10547 -7.58968 4.09157 5.86349 10.51504
0.0633 0.95713 0.01344 175.73066 0 -2.85186 0.9659 1.64901 0.94378 -26.58915 2.06218 2.36177 15.38572 -60.9599 -70.50796 21.68618 92.00172 -20.60749 -5.33075 29.73124 60.82144 46.21831 28.50602 -97.12524 -40.67516 5.2189 4.78579 6.89153 -0.67902 -18.57902 3.04841 -5.79871 -13.9686 1.59707 1.27319 4.11541 -7.70613 4.06084 5.85337 10.47646
0.06855 0.95696 0.01405 175.72559 0 -2.90944 0.38564 1.4927 0.86253 -26.62239 2.13422 2.38661 15.89152 -59.35531 -68.94756 21.89306 95.23408 -21.92127 -5.78482 29.2782 59.09511 45.07542 30.12367 -96.02496 -41.99708 5.07496 5.48523 6.92306 -0.70349 -19.2899 2.97846 -5.76228 -13.97313 1.96076 1.3527 4.11888 -7.80955 4.02811 5.84238 10.44733
0.07384 0.95676 0.01473 175.74167 0 -2.94869 -0.20831 1.31411 0.77766 -26.63703 2.20014 2.4085 16.32756 -57.83913 -67.48335 22.18014 98.85962 -23.47822 -6.28432 28.67853 57.44185 44.05408 32.16064 -94.51289 -43.83638 4.86712 6.23147 6.95183 -0.73462 -20.06299 2.86285 -5.72133 -14.0881 2.35089 1.41236 4.10387 -7.95473 4.00848 5.83792 10.41463
0.07909 0.95662 0.01523 175.71479 0 -3.03006 -0.78652 1.18251 0.69778 -26.66113 2.27791 2.43684 16.87164 -56.06031 -65.78653 22.30381 101.73566 -24.58743 -6.69283 28.29992 55.56239 42.7799 33.38287 -93.57844 -44.50533 4.76293 6.87376 6.98789 -0.76088 -20.69469 2.8345 -5.68602 -13.95597 2.69064 1.52081 4.13235 -8.01448 3.96076 5.81989 10.38539
0.08424 0.95665 0.01529 175.56407 0 -3.2352 -1.32026 1.1847 0.6333 -26.74238 2.39571 2.48848 17.78724 -53.65358 -63.4973 21.99231 102.5457 -24.45251 -6.85318 28.65981 53.15977 40.82235 32.27894 -94.61478 -41.9826 4.97944 7.24964 7.05281 -0.79018 -20.92442 3.0382 -5.65477 -13.10481 2.88877 1.76693 4.28698 -7.83672 3.83856 5.76071 10.36246
0.08934 0.95673 0.01517 175.37079 0 -3.47959 -1.83273 1.23356 0.57438 -26.83805 2.52391 2.54566 18.80832 -50.992 -60.97631 21.51168 102.57173 -23.84598 -6.91846 29.24535 50.53598 38.60799 30.35055 -96.24678 -38.30214 5.30214 7.51722 7.12215 -0.80839 -21.01786 3.33411 -5.63298 -12.01919 3.03479 2.05876 4.48302 -7.57286 3.68778 5.6885 10.34444
0.09442 0.95676 0.01511 175.19968 0 -3.69781 -2.34556 1.25811 0.51348 -26.92782 2.64256 2.59672 19.75654 -48.43616 -58.55133 21.09292 102.89316 -23.41316 -7.02169 29.69917 47.99509 36.49862 28.81097 -97.53412 -35.18322 5.57339 7.82321 7.1822 -0.81154 -21.18944 3.60073 -5.61834 -11.08079 3.20245 2.32196 4.6522 -7.34807 3.54839 5.62516 10.32993
0.09967 0.95687 0.01512 175.01645 0 -3.95228 -2.90118 1.29533 0.44976 -27.0104 2.78195 2.66315 20.80854 -45.90903 -56.16091 20.7362 103.47826 -23.15807 -7.15042 30.26663 45.51505 34.43444 27.21859 -99.0993 -31.90133 5.85771 8.17645 7.2747 -0.8975 -21.29062 3.81459 -5.55529 -9.96828 3.37924 2.61955 4.85463 -7.12301 3.41543 5.55006 10.29291
